<svg width="693" height="648" viewBox="0 0 693 648" fill="none" xmlns="http://www.w3.org/2000/svg">
<path d="M2 -1.4502H687.219C688.755 -1.4502 690 -0.205277 690 1.33041V638.769C690 640.305 688.755 641.55 687.219 641.55H2V-1.4502Z" fill="#F4F6FA"/>
<path d="M0.602051 500.55H699.375C700.911 500.55 702.156 501.795 702.156 503.33V657.45C702.156 658.986 700.911 660.231 699.375 660.231H0.602051V500.55Z" fill="#E4FBFD" fill-opacity="0.6"/>
<path d="M414.559 569.424C414.559 569.424 434.365 566.658 424.803 563.431C410.57 558.64 331.971 554.31 218.973 555.092C105.975 555.874 33.5903 564.253 67.7682 575.859C67.7682 575.859 18.576 577.443 18.576 584.359C18.576 585.962 13.3441 596.566 115.397 600.235C242.868 604.825 475.158 600.295 505.828 584.9C527.517 574.015 414.559 569.424 414.559 569.424Z" fill="#DEF1FC"/>
<path d="M240.603 576.38L237.155 576.12C237.195 575.518 241.805 515.02 257.922 473.125L258.343 472.022H268.366V475.47H260.709C245.113 516.844 240.643 575.779 240.603 576.38Z" fill="#B8B9BA"/>
<path d="M182.25 571.89C183.633 557.317 188.885 510.209 201.975 475.47H209.632V472.022H199.609L199.188 473.125C185.537 508.586 180.165 557.377 178.802 571.89H182.25Z" fill="#B8B9BA"/>
<path d="M228.234 571.89H231.702C230.339 557.377 224.947 508.586 211.316 473.125L210.895 472.022H200.872V475.47H208.53C221.599 510.209 226.871 557.317 228.234 571.89Z" fill="#B8B9BA"/>
<path d="M286.988 571.89H290.456C289.093 557.377 283.701 508.586 270.07 473.125L269.649 472.022H259.626V475.47H267.283C280.353 510.209 285.605 557.317 286.988 571.89Z" fill="#B8B9BA"/>
<path d="M184.013 394.765C184.013 394.765 186.178 447.225 198.085 475.49H270.931C270.931 475.49 279.531 443.356 281.095 398.253L239.52 381.636L207.988 385.083L192.934 387.148L186.88 389.453L184.013 394.765Z" fill="#BBD7EA"/>
<path d="M270.45 401.542C270.45 401.542 282.478 422.109 304.327 426.9L308.938 417.398L299.877 402.263L270.45 395.949V401.542Z" fill="#BBD7EA"/>
<path d="M231.081 351.167L232.785 365.259C232.785 365.259 233.687 368.987 227.954 369.789C222.221 370.591 215.165 363.956 215.165 363.956L216.347 343.509L227.052 342.607V344.311L231.081 351.167Z" fill="#FFD3CF"/>
<path d="M215.866 351.968C218.572 355.636 223.644 360.287 232.384 361.89L231.161 351.787C228.234 350.304 225.949 349.262 225.949 349.262L216.327 344.15L215.866 351.968Z" fill="#F5B9B5"/>
<path d="M243.429 314.262C243.429 314.262 252.249 319.915 251.187 340.983L244.892 341.304C244.892 341.304 243.309 355.536 235.671 357.06C228.034 358.583 217.931 355.577 213.821 339.5C209.692 323.443 223.183 315.385 224.025 315.325C224.847 315.265 239.079 313.481 239.079 313.481L243.429 314.262Z" fill="#FFD3CF"/>
<path d="M382.767 413.629C382.767 413.629 380.121 417.839 383.769 421.688H349.791C349.791 421.688 345.241 418.119 349.791 414.271L382.767 413.629Z" fill="#175170"/>
<path d="M382.606 413.949L368.414 414.31C366.77 415.573 365.487 417.698 368.194 420.885L383.007 420.745C381.243 417.798 382.306 414.892 382.606 413.949Z" fill="white"/>
<path d="M352.297 421.687C349.19 417.297 352.718 414.13 352.738 414.09L352.919 414.31C352.778 414.431 349.571 417.337 352.518 421.527L352.297 421.687Z" fill="white"/>
<path d="M353.56 421.687C350.453 417.297 353.981 414.13 354.001 414.09L354.182 414.31C354.041 414.431 350.834 417.337 353.781 421.527L353.56 421.687Z" fill="white"/>
<path d="M385.814 421.006C385.814 421.006 382.747 425.215 386.977 429.064H347.426C347.426 429.064 342.114 425.496 347.426 421.647L385.814 421.006Z" fill="#4DBB40"/>
<path d="M385.493 421.527L368.574 421.768C366.65 423.051 365.127 425.236 368.254 428.543H386.455C384.09 425.657 385.112 422.69 385.493 421.527Z" fill="white"/>
<path d="M349.892 429.164C346.324 425.115 349.872 421.547 349.892 421.507L350.093 421.707C349.952 421.847 346.725 425.135 350.093 428.964L349.892 429.164Z" fill="white"/>
<path d="M361.98 429.164C358.411 425.115 361.939 421.346 361.98 421.326L362.18 421.526C362.04 421.667 358.792 425.155 362.18 428.984L361.98 429.164Z" fill="white"/>
<path d="M111.729 431.63L107.499 405.831H132.356L127.404 432.832H116.56L111.729 431.63Z" fill="#4DBB40"/>
<path d="M215.225 362.993C215.225 362.993 196.121 365.759 183.131 373.357C166.874 382.858 139.051 414.952 141.917 424.353C143.541 429.685 182.169 431.169 207.607 424.132V417.618C207.607 417.618 189.807 414.911 177.839 409.619C177.839 409.619 190.849 403.325 196.943 400.539L213.3 382.818L212.839 371.773L215.225 362.993Z" fill="#2991F3"/>
<path d="M232.384 361.891C232.384 361.891 269.488 371.573 297.813 386.307V405.831L265.239 404.689L244.632 389.494C244.632 389.494 241.926 377.326 241.705 375.021C241.444 372.696 232.384 361.891 232.384 361.891Z" fill="#2991F3"/>
<path d="M208.69 367.363L215.225 362.993C215.225 362.993 219.073 369.528 228.375 367.303C232.905 366.221 232.384 361.891 232.384 361.891L254.053 373.598L268.105 402.383L265.219 404.689L255.837 450.273C255.837 450.273 251.988 460.175 233.105 459.013C214.222 457.87 207.086 452.798 207.086 452.798L196.963 400.519C196.963 400.519 194.658 388.311 194.658 387.63C194.658 386.948 200.872 377.968 200.872 377.968L208.249 368.526L208.69 367.363Z" fill="#2991F3"/>
<path d="M291.579 459.774C291.579 459.774 254.274 444.239 221.118 440.951C187.962 437.664 172.928 442.675 187.261 456.326C201.594 469.978 270.852 469.276 288.973 467.031L291.559 462.2V459.774H291.579Z" fill="#1A5A80"/>
<path d="M147.991 483.809H97.877V487.417H147.991V483.809Z" fill="#B8B9BA"/>
<path d="M379.319 483.809H329.205V487.417H379.319V483.809Z" fill="#B8B9BA"/>
<path d="M362.801 342.607H257.902V408.758H362.801V342.607Z" fill="#939598"/>
<path d="M365.808 342.607H260.909V408.758H365.808V342.607Z" fill="#BCBEC0"/>
<path d="M331.67 374.3H290.596V402.845H331.67V374.3Z" fill="#939598"/>
<path d="M334.938 374.3H293.864V402.845H334.938V374.3Z" fill="#D1D3D4"/>
<path d="M247.238 318.151C246.055 316.086 244.893 315.505 244.171 314.864C241.725 316.688 236.092 321.359 236.092 321.359L229.979 327.392L227.232 329.317L225.869 331.522C225.869 331.522 231.863 332.404 237.897 328.234C242.106 325.328 242.206 321.8 247.238 318.151Z" fill="#F5B9B5"/>
<path d="M248.701 321.88C248.701 321.88 257.06 319.414 258.543 311.596C260.027 303.778 257.08 301.313 253.452 302.215C249.823 303.117 247.358 306.043 237.896 303.758C228.435 301.473 212.799 295.54 203.839 308.69C194.878 321.84 202.636 333.526 205.783 336.533C208.93 339.54 207.667 350.766 213.781 352.048C219.895 353.331 223.223 345.433 222.682 338.077L225.969 333.346L225.889 331.482C225.889 331.482 233.827 331.662 237.856 326.851C241.885 322.04 242.366 318.752 246.055 316.948C246.035 316.968 248.22 320.597 248.701 321.88Z" fill="#0F3447"/>
<path d="M225.869 331.521C225.869 331.521 225.849 331.321 225.789 331C225.528 329.877 224.566 327.372 221.158 328.133C216.788 329.096 217.109 342.346 225.328 341.043C233.526 339.72 227.553 334.167 227.553 334.167L225.869 331.521Z" fill="#FFD3CF"/>
<path d="M323.071 387.81H302.724V425.476H323.071V387.81Z" fill="#939598"/>
<path d="M326.057 387.81H305.711V425.476H326.057V387.81Z" fill="#E6E7E8"/>
<path d="M341.573 424.113H285.124V429.686H341.573V424.113Z" fill="#939598"/>
<path d="M272.134 424.113H202.175V429.686H272.134V424.113Z" fill="#BBD2D9"/>
<path d="M112.811 424.433C106.456 424.433 102.367 419.863 101.385 416.034C100.623 413.107 101.665 410.762 104.011 410.08C108.02 408.918 112.39 412.907 112.59 413.067L111.127 414.671C110.125 413.749 106.978 411.484 104.632 412.165C102.928 412.666 103.329 414.831 103.51 415.493C104.011 417.437 105.434 419.362 107.338 420.625C108.962 421.707 111.708 422.81 115.537 421.968L116.018 424.092C114.876 424.313 113.813 424.433 112.811 424.433Z" fill="#4DBB40"/>
<path d="M224.987 370.41C221.018 370.41 218.152 368.947 216.327 367.544C213.882 365.68 212.779 363.595 212.739 363.515L213.341 363.194C213.361 363.214 214.423 365.239 216.768 367.023C219.876 369.388 223.624 370.21 227.914 369.468C230.54 369.007 232.344 368.005 233.266 366.481C234.429 364.577 233.807 362.492 233.787 362.472L234.449 362.272C234.489 362.372 235.17 364.677 233.847 366.842C232.805 368.546 230.861 369.649 228.034 370.15C226.952 370.33 225.929 370.41 224.987 370.41Z" fill="white"/>
<path d="M161.662 571.89H165.331L140.033 431.149H107.759V434.777H137.006L161.662 571.89Z" fill="#B8B9BA"/>
<path d="M316.856 571.89L341.513 434.777H370.739V431.149H338.486L313.168 571.89H316.856Z" fill="#B8B9BA"/>
<path d="M394.313 571.89H397.982L372.684 431.149H340.41V434.777H369.657L394.313 571.89Z" fill="#B8B9BA"/>
<path d="M84.206 571.89L108.862 434.777H138.089V431.149H105.835L80.5176 571.89H84.206Z" fill="#B8B9BA"/>
<path d="M396.859 428.763H85.9897V437.163H396.859V428.763Z" fill="#2F5B71"/>
<path d="M206.525 417.437C206.525 417.437 220.236 413.569 223.323 413.889C225.769 414.15 239.159 419.883 237.616 421.026C236.614 421.747 231.562 420.043 231.562 420.043C231.562 420.043 238.418 421.246 236.954 422.93C235.912 424.133 230.76 421.206 230.76 421.206C230.76 421.206 237.896 423.932 236.012 424.133C234.128 424.333 227.874 422.108 227.874 422.108C227.874 422.108 233.486 424.975 232.424 425.476C231.362 425.997 223.444 423.231 223.444 423.231C223.444 423.231 216.187 424.333 206.565 422.248V417.437H206.525Z" fill="#F5B9B5"/>
<path d="M451.644 555.591C451.524 549.918 450.842 547.513 449.92 544.165C449.239 541.72 448.457 538.933 447.695 534.142C445.931 523.197 450.061 515.881 454.07 509.867C456.495 506.239 456.636 501.307 456.776 496.537C456.836 494.552 456.896 492.668 457.097 490.884C457.798 484.93 451.123 479.879 451.063 479.818L451.364 479.418C451.644 479.638 458.34 484.71 457.598 490.944C457.397 492.708 457.337 494.572 457.277 496.557C457.137 501.408 456.976 506.399 454.471 510.148C451.404 514.738 446.292 522.396 448.176 534.062C448.938 538.833 449.72 541.599 450.381 544.025C451.283 547.272 452.005 549.838 452.125 555.571L451.644 555.591Z" fill="#9FD8E6"/>
<path d="M462.168 473.164C462.168 473.164 455.332 479.017 453.989 485.953C452.646 492.889 462.428 496.236 464.613 487.276C466.457 479.639 462.168 473.164 462.168 473.164Z" fill="#BAE7F2"/>
<path d="M451.724 480.04C453.669 479.439 455.974 473.766 453.829 468.775C451.664 463.783 442.884 459.714 442.884 459.714C442.884 459.714 442.022 467.371 444.287 473.004C446.552 478.617 449.98 480.582 451.724 480.04Z" fill="#9FD8E6"/>
<path d="M470.627 489.702C470.627 489.702 464.112 492.208 460.564 494.473C457.016 496.738 454.13 502.01 454.972 505.057C455.813 508.104 461.687 507.403 464.834 503.494C467.961 499.585 469.384 493.19 470.627 489.702Z" fill="#9FD8E6"/>
<path d="M455.793 503.132C455.793 503.132 456.635 497.219 451.924 494.312C447.213 491.406 439.396 492.107 439.396 492.107C439.396 492.107 442.242 498.943 448.356 502.992C454.45 507.061 456.996 506.3 455.793 503.132Z" fill="#BAE7F2"/>
<path d="M475.619 508.344C475.619 508.344 468.783 507.442 462.609 508.445C456.435 509.447 452.045 512.434 451.463 514.599C450.882 516.764 454.109 521.434 463.711 518.468C471.89 515.942 475.619 508.344 475.619 508.344Z" fill="#9FD8E6"/>
<path d="M470.808 520.673C470.808 520.673 466.217 522.838 462.048 523.299C457.878 523.74 453.288 523.319 451.022 525.504C448.757 527.689 447.454 530.355 447.695 532.239C447.935 534.124 451.323 538.534 458.921 536.709C466.538 534.865 470.206 523.259 470.808 520.673Z" fill="#9FD8E6"/>
<path d="M429.393 512.415C429.393 512.415 433.503 514.519 439.176 517.787C446.572 522.036 447.595 527.128 447.675 532.22C447.675 532.22 440.178 534.605 434.184 527.248C428.331 520.052 429.393 512.415 429.393 512.415Z" fill="#9FD8E6"/>
<path d="M451.844 513.897C451.844 513.897 452.105 510.329 448.356 507.142C444.608 503.954 436.108 502.451 427.248 500.687C427.248 500.687 431.919 510.79 441.781 515.26C446.793 517.525 450.1 516.704 451.844 513.897Z" fill="#9FD8E6"/>
<path d="M420.112 476.452C420.112 476.452 428.772 474.127 436.589 477.334C444.407 480.522 446.933 486.555 445.911 488.319C444.888 490.083 439.115 490.685 432.38 486.475C425.664 482.246 420.112 476.452 420.112 476.452Z" fill="#9FD8E6"/>
<path d="M454.39 499.544C453.388 493.912 446.252 488.86 445.791 488.539C444.748 488.118 443.586 487.697 443.405 487.677L443.425 487.176C443.706 487.176 445.33 487.818 446.011 488.078L446.051 488.098C446.372 488.319 453.809 493.451 454.871 499.444L454.39 499.544Z" fill="#BAE7F2"/>
<path d="M440.358 553.949L443.285 578.505H462.909L465.215 553.187L440.358 553.949Z" fill="#4DBB40"/>
<path d="M441.039 559.681L464.753 558.158L464.994 555.592L440.859 554.409L440.438 554.67L441.039 559.681Z" fill="#44A336"/>
<path d="M438.093 549.478L439.135 556.474L466.397 557.056L467.46 548.897L438.093 549.478Z" fill="#4DBB40"/>
<path d="M434.204 527.248C440.198 534.605 447.695 532.22 447.695 532.22C447.695 532.22 438.414 528.17 429.393 512.414C429.393 512.414 428.331 520.052 434.204 527.248Z" fill="#BAE7F2"/>
<path d="M463.691 518.468C471.89 515.942 475.598 508.345 475.598 508.345C461.607 516.463 451.443 514.599 451.443 514.599C450.862 516.744 454.089 521.415 463.691 518.468Z" fill="#BAE7F2"/>
<path d="M448.356 503.013C454.47 507.062 457.016 506.301 455.813 503.133C447.454 498.042 439.416 492.128 439.416 492.128C439.416 492.128 442.242 498.944 448.356 503.013Z" fill="#9FD8E6"/>
<path d="M464.614 487.277C466.478 479.64 462.168 473.165 462.168 473.165C462.168 473.165 461.166 485.112 456.976 492.248C459.682 493.491 463.371 492.369 464.614 487.277Z" fill="#9FD8E6"/>
<path d="M444.287 472.984C446.552 478.617 449.98 480.562 451.724 480.02C445.49 468.715 442.884 459.694 442.884 459.694C442.884 459.694 442.022 467.371 444.287 472.984Z" fill="#BAE7F2"/>
<path d="M136.565 428.763H85.9897V437.163H136.565V428.763Z" fill="#2178A3"/>
<path d="M291.238 459.634C290.817 459.453 289.995 459.133 288.832 458.672C278.328 459.173 240.201 460.656 217.389 456.727C195.339 452.918 187.04 445.522 184.815 443.076C180.305 445.742 180.786 450.152 187.281 456.326C199.368 467.832 250.565 469.135 277.166 467.933L283.761 467.051L286.687 466.048L289.714 464.485L291.238 459.634Z" fill="#185375"/>
<path d="M291.579 459.774C291.579 459.774 284.723 463.462 280.694 474.848C276.665 486.254 280.233 500.587 280.233 500.587L301.301 463.222C301.321 463.242 297.512 459.153 291.579 459.774Z" fill="#0F3447"/>
<path d="M282.378 484.551L277.527 477.856L282.999 477.074L278.008 473.927L285.645 472.283L281.436 470.198L281.736 469.597L287.69 472.543L279.792 474.247L284.944 477.495L278.75 478.377L282.919 484.15L282.378 484.551Z" fill="white"/>
<path d="M243.89 572.311C243.89 572.311 254.073 526.887 255.697 493.391C256.94 467.652 250.625 453.319 242.006 454.883C233.366 456.447 229.898 473.706 229.918 494.954C229.938 514.218 236.313 573.534 236.313 573.534L243.89 572.311Z" fill="#1A5A80"/>
<path d="M245.233 565.957C242.767 548.617 236.894 497.821 236.353 484.671C235.15 454.763 244.812 454.963 244.812 454.963C243.91 454.743 242.948 454.703 241.966 454.883C233.326 456.447 229.858 473.706 229.878 494.955C229.898 514.219 236.273 573.534 236.273 573.534L243.87 572.331C243.89 572.311 244.411 569.966 245.233 565.957Z" fill="#185375"/>
<path d="M236.293 573.514C236.293 573.514 242.828 570.547 254.735 572.652C266.642 574.757 277.346 584.379 277.346 584.379L234.449 584.339C234.449 584.319 232.825 578.365 236.293 573.514Z" fill="#0F3447"/>
<path d="M256.759 579.507L253.632 572.05L251.387 577.723L249.383 571.79L244.471 576.961L243.99 576.5L249.663 570.507L251.427 575.739L253.612 570.246L256.639 577.443L257.902 572.932L258.563 573.113L256.759 579.507Z" fill="white"/>
<path d="M152.702 423.331C150.878 417.899 168.077 393.323 181.848 381.636C194.658 370.771 209.592 364.036 209.612 364.016C202.977 365.419 191.711 368.326 183.131 373.337C166.874 382.839 139.051 414.932 141.917 424.334C142.759 427.1 153.584 428.844 167.355 428.864C160.239 427.621 153.524 425.777 152.702 423.331Z" fill="#BBD7EA"/>
<path d="M196.963 400.52L211.416 394.526L197.845 405.13L196.963 400.52Z" fill="#BBD7EA"/>
<path d="M120.067 312.779C120.067 312.779 87.2526 320.516 92.7051 338.638C98.9593 359.385 138.089 363.274 129.99 375.542C124.939 383.179 104.291 383.861 119.165 399.877C119.165 399.877 117.201 390.957 136.545 385.484C177.579 373.898 173.309 352.229 147.169 342.627C122.874 333.686 105.013 325.688 120.067 312.779Z" fill="white"/>
<path d="M248.5 303.998C247.398 304.339 246.115 304.58 244.511 304.6C237.736 309.11 228.174 311.496 221.519 309.17C212.538 306.043 217.67 301.072 218.311 300.49C217.129 300.571 215.946 300.731 214.783 301.012C211.636 303.758 208.068 308.288 211.416 312.758C216.307 319.293 234.248 315.645 242.066 310.273C245.514 307.927 247.438 305.722 248.5 303.998Z" fill="#144761"/>
</svg>
